HIERARCHY
ROOT Hips
{
	OFFSET 0.0000 0.0000 0.0000
	CHANNELS 6 Xposition Yposition Zposition Zrotation Xrotation Yrotation
	JOINT Spine1
	{
		OFFSET -0.0137 5.0038 -0.0537
		CHANNELS 3 Zrotation Xrotation Yrotation
		JOINT Spine2
		{
			OFFSET -0.0000 7.1253 -0.0298
			CHANNELS 3 Zrotation Xrotation Yrotation
			JOINT Chest
			{
				OFFSET -0.0000 7.5501 -0.8160
				CHANNELS 3 Zrotation Xrotation Yrotation
				JOINT Neck1
				{
					OFFSET -0.1817 26.3113 -0.5533
					CHANNELS 3 Zrotation Xrotation Yrotation
					JOINT Neck2
					{
						OFFSET -0.0000 7.7094 2.3026
						CHANNELS 3 Zrotation Xrotation Yrotation
						JOINT Head
						{
							OFFSET -0.0000 6.1289 1.9537
							CHANNELS 3 Zrotation Xrotation Yrotation
							JOINT Jaw
							{
								OFFSET 0.0026 0.4756 3.0949
								CHANNELS 3 Zrotation Xrotation Yrotation
								End Site
								{
									OFFSET 0.0 1.0 0.0
								}
							}
							JOINT LeftEye
							{
								OFFSET 3.2064 5.3802 7.5869
								CHANNELS 3 Zrotation Xrotation Yrotation
								End Site
								{
									OFFSET 0.0 1.0 0.0
								}
							}
							JOINT RightEye
							{
								OFFSET -3.2224 5.3619 7.5582
								CHANNELS 3 Zrotation Xrotation Yrotation
								End Site
								{
									OFFSET 0.0 1.0 0.0
								}
							}
						}
					}
				}
				JOINT LeftShoulder
				{
					OFFSET 1.6217 23.2372 5.1134
					CHANNELS 3 Zrotation Xrotation Yrotation
					JOINT LeftArm
					{
						OFFSET 14.9198 0.0000 -5.5023
						CHANNELS 3 Zrotation Xrotation Yrotation
						JOINT LeftForeArm
						{
							OFFSET 28.7393 0.0000 -0.0026
							CHANNELS 3 Zrotation Xrotation Yrotation
							JOINT LeftHand
							{
								OFFSET 27.0940 -0.0000 0.0026
								CHANNELS 3 Zrotation Xrotation Yrotation
								JOINT LeftHandThumbEnd
								{
									OFFSET 12.2686 -3.2202 4.8331
									CHANNELS 3 Zrotation Xrotation Yrotation
									End Site
									{
										OFFSET 0.0 1.0 0.0
									}
								}
								JOINT LeftHandMiddleEnd
								{
									OFFSET 19.0120 -0.3129 -0.0340
									CHANNELS 3 Zrotation Xrotation Yrotation
									End Site
									{
										OFFSET 0.0 1.0 0.0
									}
								}
							}
						}
					}
				}
				JOINT RightShoulder
				{
					OFFSET -1.3801 23.1803 5.2142
					CHANNELS 3 Zrotation Xrotation Yrotation
					JOINT RightArm
					{
						OFFSET -15.0372 0.0000 -5.5456
						CHANNELS 3 Zrotation Xrotation Yrotation
						JOINT RightForeArm
						{
							OFFSET -28.7366 0.0000 -0.0026
							CHANNELS 3 Zrotation Xrotation Yrotation
							JOINT RightHand
							{
								OFFSET -27.1336 -0.0000 0.0026
								CHANNELS 3 Zrotation Xrotation Yrotation
								JOINT RightHandThumbEnd
								{
									OFFSET -12.2642 -3.2115 4.8040
									CHANNELS 3 Zrotation Xrotation Yrotation
									End Site
									{
										OFFSET 0.0 1.0 0.0
									}
								}
								JOINT RightHandMiddleEnd
								{
									OFFSET -19.0006 -0.3066 -0.0316
									CHANNELS 3 Zrotation Xrotation Yrotation
									End Site
									{
										OFFSET 0.0 1.0 0.0
									}
								}
							}
						}
					}
				}
			}
		}
	}
	JOINT LeftLeg
	{
		OFFSET 10.0432 -8.4345 2.5957
		CHANNELS 3 Zrotation Xrotation Yrotation
		JOINT LeftShin
		{
			OFFSET -0.0000 -43.2218 -0.8029
			CHANNELS 3 Zrotation Xrotation Yrotation
			JOINT LeftFoot
			{
				OFFSET 0.0000 -42.1551 -3.4815
				CHANNELS 3 Zrotation Xrotation Yrotation
				JOINT LeftToeBase
				{
					OFFSET 0.0000 -5.0595 13.2315
					CHANNELS 3 Zrotation Xrotation Yrotation
					End Site
					{
						OFFSET 0.0 1.0 0.0
					}
				}
			}
		}
	}
	JOINT RightLeg
	{
		OFFSET -10.0473 -8.2953 2.6203
		CHANNELS 3 Zrotation Xrotation Yrotation
		JOINT RightShin
		{
			OFFSET 0.0000 -43.3622 -0.8056
			CHANNELS 3 Zrotation Xrotation Yrotation
			JOINT RightFoot
			{
				OFFSET 0.0000 -42.1174 -3.4784
				CHANNELS 3 Zrotation Xrotation Yrotation
				JOINT RightToeBase
				{
					OFFSET -0.0000 -5.0796 13.2842
					CHANNELS 3 Zrotation Xrotation Yrotation
					End Site
					{
						OFFSET 0.0 1.0 0.0
					}
				}
			}
		}
	}
}
MOTION
Frames: 11
Frame Time: 0.033333
-1.5643 100.2224 4.9549 0.5652 2.4687 0.0167 -0.1642 -0.1344 -0.1584 -0.5243 -4.8022 -0.4494 0.3298 6.8959 -2.3393 -1.6368 1.1038 3.1653 -0.7570 -3.6555 -0.0762 1.2604 -6.9247 -1.5957 0.0226 -0.0053 0.0074 0.7514 -10.6300 -3.8628 -0.7098 -10.6969 3.8753 -13.4735 11.3708 -6.8896 -62.7299 2.3002 -13.9148 0.2211 0.3512 -32.4768 0.2683 4.6165 6.1497 -16.0157 10.5920 15.6859 -60.4457 1.6134 2.4878 12.0193 11.2017 11.8015 65.1873 1.4907 18.0478 0.0372 0.2188 32.2657 1.3257 1.1259 -1.3017 15.4716 7.2207 -16.2778 49.6011 -3.8623 -5.2939 1.0603 -1.5840 3.7820 -0.0120 3.5170 0.1522 -3.1154 -5.0548 2.8598 1.6528 -1.2464 -1.8733 -0.4321 -2.7483 0.2776 -0.0252 3.7473 -0.0246 0.6948 -3.8509 -5.6039 -1.4215 -0.5915 1.1699
-1.5927 100.2291 5.2630 0.5617 2.6290 -0.1689 -0.1455 -0.1112 -0.1558 -0.5229 -4.7874 -0.3521 0.3031 6.8391 -2.3698 -1.6709 1.0320 3.1612 -0.7377 -3.6294 -0.0164 1.2253 -7.0982 -1.6533 0.0172 -0.0009 0.0189 0.7472 -10.6230 -3.8518 -0.7163 -10.6894 3.8882 -13.3268 11.3737 -6.8723 -62.9811 2.1475 -13.5193 0.1170 0.2792 -32.8155 0.3496 4.6657 6.1455 -15.9793 10.5842 15.6467 -60.4441 1.6343 2.4264 11.8438 11.2479 11.8658 65.3453 1.2446 18.2183 0.0418 0.1976 32.2259 1.4989 1.0613 -1.2995 15.4984 7.2127 -16.3115 49.7225 -3.8533 -5.3137 1.0487 -1.7641 3.7587 -0.0249 3.7825 0.0993 -3.2372 -5.3784 3.0795 1.6501 -1.3678 -1.9121 -0.4251 -3.0617 0.4074 -0.0279 4.2042 -0.0102 0.7431 -4.2004 -5.5715 -1.4246 -0.7285 1.1637
-1.6809 100.2229 5.6209 0.5538 2.8093 -0.3843 -0.1288 -0.0875 -0.1622 -0.5092 -4.7955 -0.2998 0.2882 6.8292 -2.3274 -1.6936 0.9550 3.1752 -0.7320 -3.6428 -0.0314 1.2069 -7.2671 -1.7297 0.0158 0.0006 0.0138 0.7412 -10.6269 -3.8563 -0.7129 -10.6902 3.8819 -13.1650 11.4309 -6.8784 -63.2505 2.0256 -13.0538 0.0096 0.2210 -33.4267 0.4435 4.6041 6.2210 -15.9282 10.5913 15.6512 -60.4267 1.6258 2.4700 11.6471 11.3231 11.9421 65.5153 1.0186 18.3363 0.0355 0.1557 32.3749 1.6139 0.9572 -1.3289 15.5306 7.2359 -16.3297 49.7739 -3.8506 -5.3612 1.0434 -1.9786 3.7672 -0.0229 4.1335 0.0707 -3.2985 -5.7786 3.2656 1.6489 -1.4346 -1.9297 -0.4084 -3.3732 0.5887 -0.0266 4.6663 0.0006 0.8096 -4.5891 -5.5816 -1.4245 -0.8231 1.1618
-1.7503 100.2078 5.9250 0.5265 2.9923 -0.6120 -0.1089 -0.0658 -0.1508 -0.4870 -4.8156 -0.2817 0.2791 6.8217 -2.2781 -1.6999 0.9205 3.2099 -0.7360 -3.6601 -0.0361 1.2038 -7.4766 -1.8046 0.0167 -0.0019 0.0099 0.7350 -10.6301 -3.8591 -0.7046 -10.6921 3.8766 -13.0068 11.5375 -6.8805 -63.5155 1.9463 -12.6235 -0.0492 0.1971 -34.1427 0.4992 4.5086 6.2826 -15.8410 10.5912 15.6317 -60.3606 1.6105 2.4868 11.4301 11.4105 12.0091 65.7299 0.8149 18.4119 0.0106 0.1441 32.6050 1.7505 0.7184 -1.3402 15.5492 7.2631 -16.3369 49.7696 -3.8403 -5.4054 1.0802 -2.1740 3.8930 -0.0185 4.5036 0.0465 -3.3572 -6.2127 3.4046 1.6516 -1.4993 -1.9345 -0.3681 -3.5998 0.7700 -0.0227 5.0118 0.0025 0.8633 -4.9586 -5.5710 -1.4246 -0.9036 1.1541
-1.8260 100.1836 6.2380 0.4695 3.1792 -0.8210 -0.0732 -0.0732 -0.1565 -0.4665 -4.8348 -0.2710 0.2842 6.8231 -2.2403 -1.6765 0.9196 3.2374 -0.7485 -3.6722 -0.0609 1.2258 -7.6962 -1.8478 0.0167 0.0005 0.0046 0.7299 -10.6181 -3.8617 -0.6996 -10.6782 3.8670 -12.8630 11.6864 -6.8784 -63.7451 1.8633 -12.2805 -0.1074 0.1813 -34.8066 0.5046 4.4312 6.3325 -15.7340 10.5986 15.5961 -60.2918 1.6074 2.4676 11.2130 11.4750 12.0142 65.9683 0.6483 18.3994 -0.0397 0.1534 32.9190 1.9221 0.5077 -1.3466 15.5578 7.2798 -16.3349 49.7490 -3.8321 -5.4197 1.1721 -2.3122 4.0876 -0.0137 4.8493 0.0379 -3.4525 -6.6802 3.4441 1.6541 -1.5082 -1.9247 -0.2737 -3.7417 0.9446 -0.0233 5.2663 0.0022 0.9144 -5.3126 -5.5607 -1.4239 -0.9426 1.1437
-1.9124 100.1413 6.5802 0.3892 3.3618 -1.0796 -0.0327 -0.1015 -0.1348 -0.4471 -4.8597 -0.3035 0.2998 6.8426 -2.2226 -1.6433 0.9198 3.2638 -0.7470 -3.6830 -0.0466 1.2650 -7.8650 -1.8551 0.0173 0.0036 0.0027 0.7309 -10.6059 -3.8625 -0.6991 -10.6637 3.8644 -12.8059 11.8152 -6.8878 -63.8416 1.8758 -12.0855 -0.1439 0.1619 -35.3395 0.3562 4.4502 6.4294 -15.6383 10.6300 15.5619 -60.2432 1.6320 2.4311 11.1115 11.5226 11.9965 66.1082 0.5893 18.2922 -0.0854 0.1818 33.3481 2.0777 0.2641 -1.2925 15.5439 7.2936 -16.3567 49.7122 -3.8314 -5.4223 1.3062 -2.3798 4.3473 -0.0101 5.1974 0.0311 -3.5742 -7.2046 3.4826 1.6593 -1.5172 -1.9212 -0.1456 -3.8224 1.1893 -0.0191 5.5305 0.0015 0.9555 -5.7226 -5.5368 -1.4258 -0.9862 1.1369
-2.0450 100.0824 6.9943 0.3016 3.5250 -1.3684 0.0148 -0.1439 -0.1350 -0.4323 -4.8802 -0.3223 0.3240 6.8852 -2.2378 -1.6233 0.9094 3.2847 -0.7386 -3.6923 -0.0203 1.3091 -8.0536 -1.8371 0.0167 0.0077 0.0037 0.7295 -10.6009 -3.8598 -0.6991 -10.6549 3.8625 -12.8206 11.9694 -6.9480 -63.8277 1.9621 -12.1452 -0.1516 0.1326 -35.7729 0.0657 4.5293 6.6122 -15.5852 10.6870 15.5427 -60.2627 1.6774 2.3820 11.1056 11.5879 11.9452 66.1936 0.6210 18.0439 -0.1555 0.2061 33.9502 2.2699 -0.0310 -1.1990 15.5343 7.2945 -16.3606 49.6767 -3.8282 -5.4258 1.4753 -2.3902 4.6505 -0.0094 5.6036 0.0325 -3.7315 -7.8254 3.4806 1.6643 -1.5312 -1.9185 0.0140 -3.8520 1.4350 -0.0160 5.8464 0.0125 0.9694 -6.2246 -5.5076 -1.4253 -1.0512 1.1296
-2.1866 100.0037 7.4335 0.1933 3.6951 -1.6411 0.0718 -0.1900 -0.1320 -0.4226 -4.9184 -0.3601 0.3554 6.9550 -2.2914 -1.5986 0.8439 3.2609 -0.7281 -3.6904 0.0287 1.3452 -8.2400 -1.8040 0.0159 0.0113 0.0113 0.7297 -10.5992 -3.8512 -0.7008 -10.6483 3.8696 -12.8618 12.1203 -7.0412 -63.7201 2.1053 -12.4205 -0.1376 0.1304 -36.2627 -0.3512 4.6888 6.9447 -15.5823 10.7464 15.5370 -60.3325 1.7271 2.3627 11.2138 11.6837 11.8880 66.2211 0.7491 17.5995 -0.2017 0.2308 34.6771 2.4909 -0.4288 -1.0375 15.5204 7.3027 -16.3634 49.6320 -3.8148 -5.4122 1.6966 -2.4160 4.9881 -0.0065 6.1465 0.0237 -3.9461 -8.5758 3.4778 1.6662 -1.5615 -1.9186 0.2131 -3.8470 1.6772 -0.0130 6.2078 0.0235 0.9497 -6.8282 -5.4804 -1.4237 -1.1286 1.1316
-2.3540 99.8973 7.9538 0.0623 3.8839 -1.8600 0.1211 -0.2379 -0.1433 -0.4178 -4.9459 -0.4005 0.4074 7.0312 -2.4003 -1.5457 0.7132 3.2593 -0.7261 -3.6809 0.0543 1.3781 -8.4269 -1.8035 0.0144 0.0161 0.0255 0.7284 -10.5917 -3.8352 -0.7024 -10.6385 3.8834 -12.8486 12.2813 -7.1535 -63.6171 2.1998 -12.7674 -0.1422 0.1083 -37.0058 -0.8036 4.9198 7.2797 -15.5455 10.8183 15.5559 -60.3617 1.7818 2.3532 11.3709 11.8335 11.8159 66.2284 0.9491 16.9460 -0.1906 0.2411 35.5058 2.7704 -0.8362 -0.8686 15.4980 7.2965 -16.3509 49.5562 -3.8307 -5.3938 1.9653 -2.4501 5.3624 -0.0036 6.7663 0.0098 -4.1978 -9.4271 3.3999 1.6679 -1.5861 -1.9110 0.4665 -3.7966 1.9005 -0.0139 6.5553 0.0347 0.9218 -7.5385 -5.4805 -1.4209 -1.1793 1.1297
-2.5559 99.7880 8.5740 -0.0844 4.1059 -2.0675 0.1655 -0.2758 -0.1675 -0.4132 -4.9755 -0.4655 0.4728 7.1073 -2.5091 -1.4887 0.5252 3.2453 -0.7200 -3.6728 0.0914 1.4196 -8.6069 -1.8066 0.0131 0.0159 0.0364 0.7261 -10.5840 -3.8228 -0.7024 -10.6312 3.8934 -12.7592 12.4481 -7.2714 -63.5736 2.2015 -13.0539 -0.1737 0.1005 -38.2410 -1.1661 5.1287 7.5215 -15.4962 10.8626 15.5954 -60.3858 1.8097 2.3387 11.5075 12.0152 11.7449 66.2327 1.3623 16.2842 -0.1804 0.2497 36.4580 3.1054 -1.3064 -0.7235 15.5037 7.3079 -16.3525 49.5206 -3.8239 -5.3733 2.2642 -2.4437 5.7488 -0.0021 7.3008 -0.0187 -4.4481 -10.2709 3.2838 1.6704 -1.5992 -1.9041 0.7491 -3.7111 2.0984 -0.0161 6.8451 0.0396 0.9103 -8.2445 -5.4744 -1.4185 -1.2004 1.1336
-2.7762 99.6851 9.3312 -0.2022 4.4116 -2.2628 0.1810 -0.3122 -0.1948 -0.4110 -5.0130 -0.5624 0.5308 7.1867 -2.6159 -1.4224 0.2331 3.2093 -0.7172 -3.6619 0.1279 1.4711 -8.7887 -1.8274 0.0120 0.0137 0.0473 0.7220 -10.5826 -3.8126 -0.7001 -10.6326 3.9054 -12.6026 12.5984 -7.4183 -63.5659 2.1468 -13.3314 -0.1620 0.0875 -40.1582 -1.4457 5.3204 7.6497 -15.4444 10.8988 15.6488 -60.4298 1.8256 2.3207 11.6467 12.2382 11.6466 66.1777 2.0620 15.5498 -0.1363 0.2288 37.6998 3.4902 -1.7707 -0.6364 15.5238 7.3265 -16.3662 49.4946 -3.8269 -5.3569 2.5478 -2.3742 6.1215 -0.0012 7.6617 -0.0401 -4.6684 -11.0632 3.1743 1.6701 -1.6306 -1.9008 1.0114 -3.6406 2.2278 -0.0181 7.1172 0.0513 0.9098 -9.0107 -5.4529 -1.4146 -1.2143 1.1430
